<svg width="62" height="63" viewBox="0 0 62 63" fill="none" xmlns="http://www.w3.org/2000/svg">
<path fill-rule="evenodd" clip-rule="evenodd" d="M31.3301 0C41.7667 0 51.0096 5.13197 56.7034 13.0216C51.8257 7.83445 44.918 4.59719 37.2574 4.59719C22.4795 4.59719 10.4997 16.6419 10.4997 31.5C10.4997 46.3581 22.4795 58.4028 37.2574 58.4028C44.918 58.4028 51.8257 55.1655 56.7034 49.9784C51.0096 57.868 41.7667 63 31.3301 63C14.0269 63 0 48.897 0 31.5C0 14.103 14.0269 0 31.3301 0Z" fill="#2B5086"/>
<path fill-rule="evenodd" clip-rule="evenodd" d="M56.2474 45.6777L54.5154 43.9363L54.3763 44.1326C56.2926 41.4574 57.6164 38.3247 58.1542 34.9283H60.6761C61.0611 34.9283 61.3759 34.6118 61.3759 34.2246V28.7717C61.3759 28.3846 61.0611 28.0681 60.6761 28.0681H58.1542C57.6255 24.7297 56.3375 21.6456 54.4734 19.0006L54.5154 19.0604L56.2476 17.3188C56.52 17.045 56.5198 16.5974 56.2476 16.3236L52.4127 12.4678C52.1403 12.1942 51.6951 12.194 51.4228 12.4678L49.7582 14.1414C50.2165 14.4853 50.6606 14.8469 51.0895 15.2254C48.2088 12.6834 44.647 10.9026 40.7152 10.1949L40.7313 10.1977V8.01517C40.7313 7.62804 40.4165 7.31152 40.0314 7.31152H34.6079C34.2229 7.31152 33.9081 7.62804 33.9081 8.01517V10.0623C27.9785 10.8904 22.822 14.1478 19.4634 18.8021C22.8149 15.238 27.561 13.0137 32.8244 13.0137C42.9779 13.0137 51.2089 21.2896 51.2089 31.4982C51.2089 41.7067 42.9779 49.9826 32.8244 49.9826C27.561 49.9826 22.8149 47.7584 19.4634 44.1942C22.8222 48.8485 27.9789 52.1057 33.9081 52.934V54.981C33.9081 55.3681 34.2229 55.6846 34.6079 55.6846H40.0314C40.4165 55.6846 40.7313 55.3681 40.7313 54.981V52.7986L40.7152 52.8014C44.0725 52.1967 47.1594 50.8103 49.7832 48.8358L49.758 48.8549L51.4228 50.5287C51.695 50.8023 52.1401 50.8023 52.4125 50.5285L56.2474 46.6728C56.5198 46.3991 56.5198 45.9516 56.2474 45.6777V45.6777Z" fill="#6297BC"/>
</svg>
