<svg width="30" height="30" viewBox="0 0 30 30" fill="none" xmlns="http://www.w3.org/2000/svg">
<path d="M19.5001 14.9996C19.5001 16.1931 19.026 17.3377 18.1821 18.1816C17.3382 19.0255 16.1936 19.4996 15.0001 19.4996C13.8066 19.4996 12.662 19.0255 11.8181 18.1816C10.9742 17.3377 10.5001 16.1931 10.5001 14.9996C10.5001 14.7431 10.5271 14.4926 10.5736 14.2496H9.0001V20.2451C9.0001 20.6621 9.3376 20.9996 9.7546 20.9996H20.2471C20.4469 20.9992 20.6385 20.9195 20.7796 20.7781C20.9208 20.6366 21.0001 20.445 21.0001 20.2451V14.2496H19.4266C19.4731 14.4926 19.5001 14.7431 19.5001 14.9996ZM15.0001 17.9996C15.3942 17.9995 15.7843 17.9218 16.1484 17.7709C16.5124 17.62 16.8432 17.3989 17.1217 17.1202C17.4003 16.8415 17.6213 16.5106 17.772 16.1465C17.9227 15.7824 18.0002 15.3922 18.0001 14.9981C18 14.604 17.9223 14.2139 17.7714 13.8498C17.6205 13.4858 17.3994 13.1551 17.1207 12.8765C16.842 12.5979 16.5111 12.377 16.147 12.2262C15.7829 12.0755 15.3927 11.998 14.9986 11.9981C14.2027 11.9983 13.4396 12.3146 12.877 12.8775C12.3144 13.4404 11.9984 14.2038 11.9986 14.9996C11.9988 15.7955 12.3151 16.5586 12.878 17.1212C13.4409 17.6839 14.2043 17.9998 15.0001 17.9996ZM18.6001 11.8496H20.3986C20.5181 11.8496 20.6327 11.8022 20.7173 11.7179C20.802 11.6335 20.8497 11.5191 20.8501 11.3996V9.60111C20.8501 9.48136 20.8025 9.36652 20.7179 9.28185C20.6332 9.19718 20.5183 9.14961 20.3986 9.14961H18.6001C18.4804 9.14961 18.3655 9.19718 18.2808 9.28185C18.1962 9.36652 18.1486 9.48136 18.1486 9.60111V11.3996C18.1501 11.6471 18.3526 11.8496 18.6001 11.8496ZM15.0001 0.599609C11.181 0.599609 7.51828 2.11675 4.81776 4.81727C2.11724 7.5178 0.600098 11.1805 0.600098 14.9996C0.600098 18.8187 2.11724 22.4814 4.81776 25.1819C7.51828 27.8825 11.181 29.3996 15.0001 29.3996C16.8911 29.3996 18.7637 29.0271 20.5107 28.3035C22.2578 27.5798 23.8453 26.5191 25.1824 25.1819C26.5196 23.8448 27.5803 22.2573 28.304 20.5103C29.0276 18.7632 29.4001 16.8906 29.4001 14.9996C29.4001 13.1086 29.0276 11.2361 28.304 9.48897C27.5803 7.74188 26.5196 6.15444 25.1824 4.81727C23.8453 3.48011 22.2578 2.41941 20.5107 1.69574C18.7637 0.972076 16.8911 0.599609 15.0001 0.599609ZM22.5001 20.8331C22.5001 21.7496 21.7501 22.4996 20.8336 22.4996H9.1666C8.2501 22.4996 7.5001 21.7496 7.5001 20.8331V9.16611C7.5001 8.24961 8.2501 7.49961 9.1666 7.49961H20.8336C21.7501 7.49961 22.5001 8.24961 22.5001 9.16611V20.8331Z" fill="#2B5086"/>
</svg>
