<svg width="30" height="30" viewBox="0 0 30 30" fill="none" xmlns="http://www.w3.org/2000/svg">
<path d="M15.0001 0.599609C7.0471 0.599609 0.600098 7.04661 0.600098 14.9996C0.600098 22.9526 7.0471 29.3996 15.0001 29.3996C22.9531 29.3996 29.4001 22.9526 29.4001 14.9996C29.4001 7.04661 22.9531 0.599609 15.0001 0.599609ZM20.5381 16.8461C20.5381 16.8461 21.8116 18.1031 22.1251 18.6866C22.1341 18.6986 22.1386 18.7106 22.1416 18.7166C22.2691 18.9311 22.2991 19.0976 22.2361 19.2221C22.1311 19.4291 21.7711 19.5311 21.6481 19.5401H19.3981C19.2421 19.5401 18.9151 19.4996 18.5191 19.2266C18.2146 19.0136 17.9146 18.6641 17.6221 18.3236C17.1856 17.8166 16.8076 17.3786 16.4266 17.3786C16.3782 17.3785 16.3301 17.3861 16.2841 17.4011C15.9961 17.4941 15.6271 17.9051 15.6271 19.0001C15.6271 19.3421 15.3571 19.5386 15.1666 19.5386H14.1361C13.7851 19.5386 11.9566 19.4156 10.3366 17.7071C8.3536 15.6146 6.5686 11.4176 6.5536 11.3786C6.4411 11.1071 6.6736 10.9616 6.9271 10.9616H9.1996C9.5026 10.9616 9.6016 11.1461 9.6706 11.3096C9.7516 11.5001 10.0486 12.2576 10.5361 13.1096C11.3266 14.4986 11.8111 15.0626 12.1996 15.0626C12.2724 15.0618 12.344 15.0432 12.4081 15.0086C12.9151 14.7266 12.8206 12.9191 12.7981 12.5441C12.7981 12.4736 12.7966 11.7356 12.5371 11.3816C12.3511 11.1251 12.0346 11.0276 11.8426 10.9916C11.9203 10.8844 12.0227 10.7974 12.1411 10.7381C12.4891 10.5641 13.1161 10.5386 13.7386 10.5386H14.0851C14.7601 10.5476 14.9341 10.5911 15.1786 10.6526C15.6736 10.7711 15.6841 11.0906 15.6406 12.1841C15.6271 12.4946 15.6136 12.8456 15.6136 13.2596C15.6136 13.3496 15.6091 13.4456 15.6091 13.5476C15.5941 14.1041 15.5761 14.7356 15.9691 14.9951C16.0204 15.0273 16.0796 15.0444 16.1401 15.0446C16.2766 15.0446 16.6876 15.0446 17.8006 13.1351C18.1439 12.5205 18.4421 11.8818 18.6931 11.2241C18.7156 11.1851 18.7816 11.0651 18.8596 11.0186C18.9172 10.9893 18.981 10.9743 19.0456 10.9751H21.7171C22.0081 10.9751 22.2076 11.0186 22.2451 11.1311C22.3111 11.3096 22.2331 11.8541 21.0136 13.5056L20.4691 14.2241C19.3636 15.6731 19.3636 15.7466 20.5381 16.8461Z" fill="#2B5086"/>
</svg>
